<svg xmlns="http://www.w3.org/2000/svg" width="1600" height="1000" viewBox="0 0 1600 1000">
  <defs>
    <linearGradient id="bg" x1="0" y1="0" x2="1" y2="1">
      <stop offset="0" stop-color="#ffffff"/>
      <stop offset="1" stop-color="#eef2ff"/>
    </linearGradient>
    <filter id="shadow" x="-20%" y="-20%" width="140%" height="140%">
      <feDropShadow dx="0" dy="10" stdDeviation="18" flood-color="#0f172a" flood-opacity="0.18"/>
    </filter>
  </defs>
  <rect width="1600" height="1000" fill="url(#bg)"/>
  <g filter="url(#shadow)">
    <rect x="80" y="70" width="1440" height="860" rx="22" fill="#ffffff" stroke="#0f172a" stroke-opacity="0.10"/>
    <rect x="80" y="70" width="1440" height="64" rx="22" fill="#f8fafc"/>
    <circle cx="118" cy="102" r="8" fill="#ef4444"/>
    <circle cx="144" cy="102" r="8" fill="#f59e0b"/>
    <circle cx="170" cy="102" r="8" fill="#10b981"/>

    <rect x="80" y="134" width="280" height="796" fill="#0f172a"/>
    <text x="120" y="192" font-family="ui-sans-serif, system-ui" font-size="22" font-weight="800" fill="#ffffff">SCALE X</text>
    <text x="120" y="214" font-family="ui-sans-serif, system-ui" font-size="10" font-weight="700" letter-spacing="3" fill="#93c5fd">SOCIAL OS</text>

    <g font-family="ui-sans-serif, system-ui" font-size="14" fill="#cbd5e1">
      <text x="120" y="280">Create Post</text>
      <text x="120" y="322">Queue</text>
      <text x="120" y="364">History</text>
      <text x="120" y="406">Assets</text>
      <text x="120" y="448" font-weight="700" fill="#e0f2fe">Users</text>
      <text x="120" y="490">Settings</text>
    </g>

    <text x="400" y="186" font-family="ui-sans-serif, system-ui" font-size="20" font-weight="800" fill="#0f172a">Admin Users</text>
    <text x="400" y="210" font-family="ui-sans-serif, system-ui" font-size="12" fill="#64748b">Create users and assign outlet permissions</text>

    <rect x="380" y="240" width="1120" height="640" rx="18" fill="#ffffff" stroke="#0f172a" stroke-opacity="0.08"/>

    <rect x="420" y="280" width="520" height="44" rx="12" fill="#f1f5f9"/>
    <rect x="960" y="280" width="500" height="44" rx="12" fill="#f1f5f9"/>
    <rect x="420" y="340" width="360" height="44" rx="12" fill="#f1f5f9"/>
    <rect x="800" y="340" width="660" height="44" rx="12" fill="#f1f5f9"/>

    <rect x="420" y="404" width="180" height="44" rx="12" fill="#0f172a"/>
    <text x="510" y="432" text-anchor="middle" font-family="ui-sans-serif, system-ui" font-size="12" font-weight="800" fill="#ffffff">Save User</text>

    <rect x="420" y="480" width="1040" height="60" rx="12" fill="#ffffff" stroke="#0f172a" stroke-opacity="0.06"/>
    <text x="440" y="515" font-family="ui-sans-serif, system-ui" font-size="12" font-weight="800" fill="#0f172a">admin</text>
    <text x="520" y="515" font-family="ui-sans-serif, system-ui" font-size="12" fill="#64748b">agency_manager • brands: *</text>

    <rect x="420" y="552" width="1040" height="60" rx="12" fill="#ffffff" stroke="#0f172a" stroke-opacity="0.06"/>
    <text x="440" y="587" font-family="ui-sans-serif, system-ui" font-size="12" font-weight="800" fill="#0f172a">barleymanager</text>
    <text x="560" y="587" font-family="ui-sans-serif, system-ui" font-size="12" fill="#64748b">bar_manager • brands: barley &amp; hops</text>
  </g>
</svg>
