<svg xmlns="http://www.w3.org/2000/svg" width="1600" height="1000" viewBox="0 0 1600 1000">
  <defs>
    <linearGradient id="bg" x1="0" y1="0" x2="1" y2="1">
      <stop offset="0" stop-color="#ffffff"/>
      <stop offset="1" stop-color="#f0fdf4"/>
    </linearGradient>
    <filter id="shadow" x="-20%" y="-20%" width="140%" height="140%">
      <feDropShadow dx="0" dy="10" stdDeviation="18" flood-color="#0f172a" flood-opacity="0.18"/>
    </filter>
  </defs>
  <rect width="1600" height="1000" fill="url(#bg)"/>
  <g filter="url(#shadow)">
    <rect x="80" y="70" width="1440" height="860" rx="22" fill="#ffffff" stroke="#0f172a" stroke-opacity="0.10"/>
    <rect x="80" y="70" width="1440" height="64" rx="22" fill="#f8fafc"/>
    <circle cx="118" cy="102" r="8" fill="#ef4444"/>
    <circle cx="144" cy="102" r="8" fill="#f59e0b"/>
    <circle cx="170" cy="102" r="8" fill="#10b981"/>

    <rect x="80" y="134" width="280" height="796" fill="#0f172a"/>
    <text x="120" y="192" font-family="ui-sans-serif, system-ui" font-size="22" font-weight="800" fill="#ffffff">SCALE X</text>
    <text x="120" y="214" font-family="ui-sans-serif, system-ui" font-size="10" font-weight="700" letter-spacing="3" fill="#93c5fd">SOCIAL OS</text>

    <g font-family="ui-sans-serif, system-ui" font-size="14" fill="#cbd5e1">
      <text x="120" y="280">Create Post</text>
      <text x="120" y="322">Queue</text>
      <text x="120" y="364" font-weight="700" fill="#e0f2fe">History</text>
      <text x="120" y="406">Assets</text>
    </g>

    <text x="400" y="186" font-family="ui-sans-serif, system-ui" font-size="20" font-weight="800" fill="#0f172a">Publish History</text>
    <text x="400" y="210" font-family="ui-sans-serif, system-ui" font-size="12" fill="#64748b">Success IDs, failures, and one-click retry</text>

    <rect x="380" y="240" width="1120" height="640" rx="18" fill="#ffffff" stroke="#0f172a" stroke-opacity="0.08"/>

    <rect x="420" y="280" width="1040" height="40" rx="10" fill="#f1f5f9"/>
    <g font-family="ui-sans-serif, system-ui" font-size="11" fill="#64748b" font-weight="700">
      <text x="440" y="305">Outlet</text>
      <text x="700" y="305">Published</text>
      <text x="880" y="305">Status</text>
      <text x="1020" y="305">IDs</text>
      <text x="1250" y="305">Error</text>
      <text x="1410" y="305">Action</text>
    </g>

    <g>
      <rect x="420" y="338" width="1040" height="60" rx="12" fill="#ffffff" stroke="#0f172a" stroke-opacity="0.06"/>
      <text x="440" y="372" font-family="ui-sans-serif, system-ui" font-size="12" font-weight="700" fill="#0f172a">Dravidian</text>
      <text x="700" y="372" font-family="ui-sans-serif, system-ui" font-size="12" fill="#0f172a">Today 6:40pm</text>
      <rect x="880" y="352" width="96" height="28" rx="14" fill="#dcfce7" stroke="#10b981" stroke-opacity="0.35"/>
      <text x="928" y="371" text-anchor="middle" font-family="ui-sans-serif, system-ui" font-size="11" font-weight="800" fill="#065f46">published</text>
      <text x="1020" y="372" font-family="ui-sans-serif, system-ui" font-size="11" fill="#64748b">P: 123 / S: 456</text>
      <text x="1250" y="372" font-family="ui-sans-serif, system-ui" font-size="11" fill="#64748b">-</text>
      <text x="1410" y="372" font-family="ui-sans-serif, system-ui" font-size="11" fill="#10b981" font-weight="800">OK</text>
    </g>
  </g>
</svg>
